<?xml version="1.0" encoding="utf-8"?>
<!-- Generator: Adobe Illustrator 16.0.0, SVG Export Plug-In . SVG Version: 6.00 Build 0)  -->
<!DOCTYPE svg PUBLIC "-//W3C//DTD SVG 1.1//EN" "http://www.w3.org/Graphics/SVG/1.1/DTD/svg11.dtd">
<svg version="1.1" id="Layer_1" xmlns="http://www.w3.org/2000/svg" xmlns:xlink="http://www.w3.org/1999/xlink" x="0px" y="0px"
	 width="329.23px" height="198.281px" viewBox="0 0 329.23 198.281" enable-background="new 0 0 329.23 198.281"
	 xml:space="preserve">
<g>
	<path fill="#009BA8" d="M180.085,56.947c0.983-4.299,2.593-11.333,3.575-15.632l6.676-29.187c0.982-4.299-1.73-8.62-6.029-9.603
		l-10.162-2.324c-4.299-0.983-8.621,1.73-9.604,6.029l-41.151,179.921c-0.983,4.299,1.729,8.621,6.028,9.604l10.16,2.324
		c4.299,0.983,8.621-1.729,9.604-6.028l6.398-27.972c0.983-4.299,2.592-11.334,3.576-15.633L180.085,56.947z"/>
	<path fill="#06BABA" d="M190.296,85.91c-4.409,0-8.822,3.517-9.806,7.816l-2.478,10.83c-0.983,4.299,1.82,7.816,6.229,7.816h9.187
		c4.409,0,11.336,0,15.393,0s7.375-3.608,7.375-8.018V93.928c0-4.41-3.608-8.018-8.018-8.018H190.296z"/>
	<path fill="#06BABA" d="M105.547,85.91c-4.41,0-8.018,3.608-8.018,8.018v10.426c0,4.409,3.608,8.018,8.018,8.018h10.422
		c4.41,0,9.696,0,11.747,0c2.051,0,4.533-3.518,5.516-7.816l2.478-10.83c0.983-4.299-1.82-7.816-6.23-7.816H105.547z"/>
	<path fill="#009BA8" d="M39.757,104.812c-3.119-3.118-3.119-8.22,0-11.338l53.863-53.864c3.118-3.118,3.118-8.221,0-11.339
		l-7.37-7.369c-3.119-3.118-8.221-3.118-11.339,0L21.048,74.765c-3.118,3.118-8.221,8.221-11.339,11.339l-7.37,7.37
		c-3.118,3.118-3.118,8.22,0,11.339l72.571,72.568c3.118,3.119,8.221,3.119,11.339,0.001l7.37-7.37
		c3.119-3.118,3.119-8.221,0-11.339L80.546,145.6c-3.118-3.118-8.221-8.221-11.339-11.339L39.757,104.812z"/>
	<path fill="#009BA8" d="M304.016,86.102c-3.118-3.119-8.221-8.221-11.339-11.339l-53.865-53.861c-3.118-3.118-8.222-3.118-11.34,0
		l-7.368,7.369c-3.118,3.118-3.119,8.221,0,11.339l53.861,53.864c3.117,3.119,3.117,8.221-0.001,11.34l-53.86,53.86
		c-3.118,3.118-3.118,8.222,0,11.34l7.368,7.368c3.118,3.119,8.222,3.119,11.34,0.001l72.573-72.57
		c3.118-3.118,3.119-8.22,0.001-11.339L304.016,86.102z"/>
	<path fill="#06BABA" d="M255.729,15.231c-4.409,0-5.466,2.551-2.348,5.669l15.117,15.118c3.118,3.118,9.278,5.669,13.688,5.669
		h39.026c4.409,0,8.018-3.608,8.018-8.018V23.25c0-4.41-3.608-8.018-8.018-8.018H255.729z"/>
	<path fill="#06BABA" d="M282.187,156.594c-4.409,0-10.569,2.551-13.688,5.67l-15.117,15.117c-3.118,3.119-2.994,5.67,0.275,5.67
		s9.554,0,13.963,0h53.593c4.409,0,8.018-3.608,8.018-8.018v-10.422c0-4.409-3.608-8.018-8.018-8.018H282.187z"/>
</g>
</svg>
