<?xml version="1.0" encoding="utf-8"?>
<!-- Generator: Adobe Illustrator 16.0.0, SVG Export Plug-In . SVG Version: 6.00 Build 0)  -->
<!DOCTYPE svg PUBLIC "-//W3C//DTD SVG 1.1//EN" "http://www.w3.org/Graphics/SVG/1.1/DTD/svg11.dtd">
<svg version="1.1" id="Layer_1" xmlns="http://www.w3.org/2000/svg" xmlns:xlink="http://www.w3.org/1999/xlink" x="0px" y="0px"
	 width="355.19px" height="201.479px" viewBox="0 0 355.19 201.479" enable-background="new 0 0 355.19 201.479"
	 xml:space="preserve">
<g>
	<polygon fill="#FFFFFF" points="185.225,50.722 195.48,5.899 169.684,0 124.948,195.577 150.744,201.479 160.719,157.872 	"/>
	<polygon fill="#FFFFFF" points="355.19,43.281 355.19,16.817 251.075,16.817 277.539,43.281 340.439,43.281 	"/>
	<polygon fill="#FFFFFF" points="262.968,184.661 340.439,184.661 355.19,184.661 355.19,158.2 277.539,158.2 251.075,184.661 	"/>
	<polygon fill="#FFFFFF" points="185.634,87.508 179.582,113.971 204.804,113.971 219.554,113.971 219.554,87.508 	"/>
	<polygon fill="#FFFFFF" points="100.871,87.508 100.871,113.971 127.333,113.971 134.793,113.971 140.846,87.508 	"/>
	
		<rect x="14.56" y="45.548" transform="matrix(0.7071 -0.7071 0.7071 0.7071 -23.7922 60.1173)" fill="#FFFFFF" width="92.224" height="26.461"/>
	<polygon fill="#FFFFFF" points="0,100.739 83.922,184.661 102.632,165.949 78.217,141.536 37.422,100.739 18.71,82.029 	"/>
	
		<rect x="246.523" y="12.668" transform="matrix(0.7071 -0.7071 0.7071 0.7071 34.5196 200.8928)" fill="#FFFFFF" width="26.463" height="92.22"/>
	<polygon fill="#FFFFFF" points="301.715,82.029 283.003,100.739 250.371,133.374 283.003,100.739 217.793,165.949 236.505,184.661 
		320.427,100.739 	"/>
</g>
</svg>
